<?xml version="1.0" encoding="UTF-8" standalone="no"?>
<!-- Created with Inkscape (http://www.inkscape.org/) -->

<svg
   width="160mm"
   height="160mm"
   viewBox="0 0 160 160"
   version="1.1"
   id="svg5"
   inkscape:version="1.1.1 (3bf5ae0d25, 2021-09-20)"
   sodipodi:docname="abc.svg"
   xmlns:inkscape="http://www.inkscape.org/namespaces/inkscape"
   xmlns:sodipodi="http://sodipodi.sourceforge.net/DTD/sodipodi-0.dtd"
   xmlns="http://www.w3.org/2000/svg"
   xmlns:svg="http://www.w3.org/2000/svg">
  <sodipodi:namedview
     id="namedview7"
     pagecolor="#ffffff"
     bordercolor="#666666"
     borderopacity="1.0"
     inkscape:pageshadow="2"
     inkscape:pageopacity="0.0"
     inkscape:pagecheckerboard="0"
     inkscape:document-units="mm"
     showgrid="false"
     inkscape:zoom="1.0998546"
     inkscape:cx="306.85874"
     inkscape:cy="375.95879"
     inkscape:window-width="1581"
     inkscape:window-height="1161"
     inkscape:window-x="987"
     inkscape:window-y="0"
     inkscape:window-maximized="0"
     inkscape:current-layer="g908" />
  <defs
     id="defs2" />
  <g
     inkscape:label="Layer 1"
     inkscape:groupmode="layer"
     id="layer1">
    <g
       id="g908"
       transform="matrix(1.2734737,0,0,1.2734737,-21.305572,-21.491647)">
      <path
         style="fill:#00fefe;stroke-width:0.264583"
         d="m 42.188469,116.68763 v -8.99583 h 1.984375 1.984375 v 8.99583 8.99583 h -1.984375 -1.984375 z m 11.898944,8.94081 c -0.004,-0.0425 -1.473549,-4.1003 -3.265622,-9.01734 l -3.258315,-8.94006 1.987579,0.0765 1.987582,0.0765 2.154512,6.46577 c 1.184985,3.55617 2.289771,6.51085 2.455082,6.56595 0.185174,0.0617 1.125461,-2.44599 2.449185,-6.53191 l 2.148617,-6.6321 h 1.966008 c 1.081307,0 1.964523,0.0893 1.962705,0.19843 -0.0019,0.10914 -1.46948,4.1275 -3.261468,8.92969 l -3.258161,8.73125 -2.030201,0.0773 c -1.116607,0.0425 -2.033487,0.0425 -2.037503,0 z m 12.178138,-8.94081 v -8.99583 h 1.984375 1.984375 v 8.99583 8.99583 h -1.984375 -1.984375 z m 11.724822,8.5205 c -3.494119,-1.24828 -5.585687,-3.7485 -6.177446,-7.3844 -0.488728,-3.00286 0.622292,-6.01358 3.031772,-8.21571 3.412945,-3.11924 8.526637,-3.09106 12.021397,0.0662 1.283626,1.15968 2.612609,3.72018 2.850536,5.49201 l 0.168761,1.25677 h -1.597075 -1.597072 l -0.311764,-1.29958 c -0.383024,-1.59662 -1.822289,-3.35186 -3.298124,-4.02221 -2.979279,-1.35323 -6.733622,0.30753 -7.783435,3.44305 -0.953257,2.84714 0.279715,5.83203 2.983224,7.22206 1.624515,0.83526 4.247833,0.6005 5.841389,-0.52275 1.08377,-0.76391 1.400363,-0.85182 3.067791,-0.85182 h 1.859306 l -0.477978,0.81607 c -0.732033,1.24981 -2.866903,3.12717 -4.256963,3.74348 -1.751436,0.77653 -4.551267,0.89021 -6.324319,0.25679 z m 14.040037,-8.5205 -2.937137,-8.99583 h 2.044602 2.044605 l 1.639541,5.88697 c 0.901747,3.23784 1.701633,6.1019 1.777529,6.36457 0.326715,1.13078 0.824833,-0.0809 2.459201,-5.98215 l 1.734919,-6.2643 h 2.11667 2.11667 l 1.73492,6.2643 c 0.95421,3.44537 1.8598,6.30593 2.01242,6.3568 0.15835,0.0528 1.05452,-2.63788 2.08728,-6.26685 l 1.80977,-6.35934 h 2.0437 2.0437 l -2.9772,8.92968 -2.9772,8.92969 -2.01567,0.077 -2.01567,0.077 -0.27378,-1.00308 c -0.71485,-2.61906 -3.419,-11.24009 -3.57442,-11.39551 -0.30334,-0.30334 -0.51357,0.29016 -2.27016,6.40901 l -1.713109,5.96734 -1.987021,2.3e-4 -1.987023,2.2e-4 z m -12.800276,-0.26397 v -3.99936 l 1.124479,0.68378 c 0.618463,0.37608 2.105959,1.24603 3.305545,1.93323 1.199586,0.68719 2.181852,1.32107 2.182812,1.40861 0.0013,0.11883 -4.848563,3.04383 -6.414399,3.86858 -0.109141,0.0575 -0.198437,-1.69519 -0.198437,-3.89484 z M 42.575575,104.7078 c -1.573834,-1.35376 -0.537411,-3.89517 1.588503,-3.89517 1.232442,0 2.373357,1.3248 2.149157,2.49555 -0.343106,1.79166 -2.390555,2.55835 -3.73766,1.39962 z m 2.992327,-8.539926 c -4.478952,-1.085739 -7.217574,-4.008308 -8.031639,-8.571097 -0.465738,-2.61043 -0.539787,-40.73364 -0.08338,-42.928935 1.042503,-5.014439 5.741347,-9.334906 10.516483,-9.669635 3.580961,-0.25102 7.240778,1.0234 9.539067,3.321691 0.867413,0.86741 1.70425,2.13079 2.507348,3.785357 0.662974,1.365879 4.171132,10.348742 7.795905,19.961919 3.624776,9.613175 6.772508,17.828487 6.994961,18.25625 1.385533,2.664277 4.621705,3.468875 6.68075,1.661006 0.933331,-0.819473 1.295186,-1.635186 3.707562,-8.357737 0.691911,-1.928151 1.332452,-3.505729 1.423421,-3.505729 0.09097,0 1.61925,3.836836 3.396186,8.526303 l 3.23079,8.526306 -0.856049,1.450438 c -1.360688,2.305481 -3.986987,4.769887 -6.295355,5.907291 -8.78232,4.327324 -18.016264,1.613524 -22.290248,-6.550964 C 63.498994,87.398255 60.190689,78.294276 56.451918,67.749271 52.713146,57.204268 49.55195,48.542472 49.42704,48.500834 c -0.12491,-0.04163 -0.22711,7.66336 -0.22711,17.122213 0,9.856158 0.09995,17.1646 0.234124,17.119875 0.12877,-0.04292 1.276853,-3.086084 2.551293,-6.762578 1.274442,-3.676494 2.362583,-6.729949 2.41809,-6.785459 0.212368,-0.212365 6.147609,16.971128 6.105115,17.675298 -0.135573,2.246411 -3.425457,6.602698 -6.191464,8.1984 -2.497617,1.440868 -5.686981,1.841595 -8.749183,1.099291 z m 59.591398,0.120923 c -1.82378,-0.356175 -4.35382,-1.72017 -5.795654,-3.124558 -0.916334,-0.892537 -1.668563,-2.03391 -2.547799,-3.865832 -0.686168,-1.429657 -4.217035,-10.517531 -7.84637,-20.195271 -3.629334,-9.677741 -6.767255,-17.921668 -6.973154,-18.319837 -0.785442,-1.518875 -2.973551,-2.576703 -4.671139,-2.258232 -1.930503,0.362165 -2.441482,1.146789 -4.823325,7.406346 l -2.201836,5.78649 -0.953966,-2.479198 c -0.524681,-1.36356 -2.019844,-5.262835 -3.322589,-8.665056 l -2.368624,-6.185858 1.049372,-1.661562 c 2.267275,-3.589975 6.215353,-6.420739 10.296598,-7.382637 3.682579,-0.867939 8.625718,-0.291154 11.723515,1.367946 2.142276,1.147347 4.901443,4.07737 6.172031,6.554219 0.597201,1.164166 4.091249,10.510572 7.76455,20.76979 3.6733,10.259219 6.78347,18.766234 6.91148,18.904479 0.13412,0.144851 0.23274,-7.058025 0.23274,-16.999479 0,-11.324166 -0.0909,-17.250832 -0.26458,-17.250832 -0.14552,0 -0.26458,0.131955 -0.26458,0.293232 0,0.322236 -4.41121,12.846163 -4.6751,13.273151 -0.20608,0.333435 -6.259702,-16.665665 -6.214723,-17.451461 0.05436,-0.949606 1.311312,-3.536593 2.45318,-5.048985 3.914663,-5.18494 10.967693,-6.321333 16.498033,-2.658186 1.62003,1.073064 2.89535,2.815068 3.64414,4.977666 l 0.59547,1.719791 0.0763,21.133908 c 0.0833,23.081413 0.12838,22.290115 -1.44718,25.399329 -0.79529,1.569434 -2.91969,3.745712 -4.62232,4.735184 -2.33481,1.356866 -5.43923,1.808446 -8.42445,1.225453 z"
         id="path910" />
    </g>
  </g>
</svg>
