<?xml version="1.0" encoding="UTF-8" standalone="no"?>
<!-- Created with Inkscape (http://www.inkscape.org/) -->

<svg
   width="160mm"
   height="160mm"
   viewBox="0 0 160 160"
   version="1.1"
   id="svg5"
   xml:space="preserve"
   inkscape:version="1.2.1 (9c6d41e410, 2022-07-14)"
   sodipodi:docname="britbox.svg"
   xmlns:inkscape="http://www.inkscape.org/namespaces/inkscape"
   xmlns:sodipodi="http://sodipodi.sourceforge.net/DTD/sodipodi-0.dtd"
   xmlns="http://www.w3.org/2000/svg"
   xmlns:svg="http://www.w3.org/2000/svg"><sodipodi:namedview
     id="namedview7"
     pagecolor="#505050"
     bordercolor="#ffffff"
     borderopacity="1"
     inkscape:showpageshadow="0"
     inkscape:pageopacity="0"
     inkscape:pagecheckerboard="1"
     inkscape:deskcolor="#505050"
     inkscape:document-units="mm"
     showgrid="false"
     inkscape:zoom="0.44409021"
     inkscape:cx="230.80896"
     inkscape:cy="458.24023"
     inkscape:window-width="1605"
     inkscape:window-height="1168"
     inkscape:window-x="1179"
     inkscape:window-y="0"
     inkscape:window-maximized="0"
     inkscape:current-layer="layer1" /><defs
     id="defs2" /><g
     inkscape:label="Layer 1"
     inkscape:groupmode="layer"
     id="layer1"><g
       id="g242"
       transform="matrix(5.0497706,0,0,5.0497706,-30.192298,-27.976568)"><path
         style="fill:#00b2e2;stroke-width:0.0846667"
         d="M 33.897831,21.773374 C 32.984005,21.505682 31.907228,20.98818 31.455532,20.5996 c -0.214115,-0.184196 -0.467494,-0.532283 -0.635,-0.872352 l -0.278723,-0.565858 -0.02209,-2.753755 c -0.01215,-1.514564 -0.04111,-2.838104 -0.06435,-2.941198 -0.03958,-0.17561 -0.09432,-0.188974 -0.866904,-0.211667 l -0.824654,-0.02422 -0.02473,-0.656167 -0.02473,-0.656167 h 0.790962 c 0.502303,0 0.82804,-0.03708 0.892561,-0.1016 0.0732,-0.0732 0.1016,-0.652212 0.1016,-2.0713543 0,-2.2692305 -0.03734,-2.1732438 0.827706,-2.1280379 l 0.484627,0.025326 0.02273,2.0252122 c 0.01456,1.29711 0.05572,2.064962 0.114494,2.135778 0.06699,0.08072 0.460759,0.116833 1.458934,0.133787 l 1.367173,0.02322 v 0.635 0.635 l -1.439334,0.04233 -1.439333,0.04233 -0.02427,2.582333 c -0.01711,1.820484 0.0058,2.691845 0.07769,2.953529 0.191784,0.698246 0.965797,1.226542 2.365178,1.61433 0.336155,0.09315 0.62746,0.185639 0.647346,0.205524 0.06005,0.06005 -0.159343,1.056539 -0.261487,1.187698 -0.08191,0.105183 -0.193403,0.09335 -0.803097,-0.08525 z M 13.058144,21.645107 C 11.125135,21.442723 9.4188903,19.98354 8.8619846,18.056547 8.732434,17.60828 8.7113427,16.991047 8.6826107,12.807214 8.6565328,9.0098561 8.6721591,8.0237395 8.7610975,7.8542146 8.8633553,7.6593017 8.9188575,7.6425479 9.4623108,7.6425479 h 0.5901662 l 0.02246,2.5370541 c 0.01235,1.39538 0.05657,2.571174 0.09827,2.612875 0.04465,0.04465 0.440465,-0.06675 0.962791,-0.270967 1.124178,-0.439532 1.808638,-0.600465 2.560524,-0.602044 1.282672,-0.0027 2.391339,0.471699 3.343804,1.430793 1.023302,1.030426 1.436484,2.023305 1.436484,3.451888 0,1.353958 -0.478428,2.537841 -1.39666,3.456073 -1.049876,1.049877 -2.491824,1.547096 -4.022006,1.386887 z m 2.052383,-1.660234 c 0.738205,-0.346257 1.34768,-0.954778 1.698931,-1.696276 0.253051,-0.534194 0.270352,-0.630317 0.270352,-1.50205 0,-0.834578 -0.02371,-0.981932 -0.228252,-1.41839 -0.262697,-0.560559 -0.946321,-1.321303 -1.454397,-1.618469 -1.169748,-0.684167 -2.671991,-0.607505 -3.790489,0.193434 -0.526275,0.376857 -0.794388,0.697081 -1.116969,1.334069 -0.7679956,1.516521 -0.250408,3.452099 1.187701,4.441543 0.646225,0.444615 1.15235,0.581399 2.058073,0.556206 0.699217,-0.01945 0.878919,-0.05736 1.37505,-0.290067 z m 4.656517,1.656375 c -0.08105,-0.08105 -0.102981,-1.145459 -0.09646,-4.681134 0.0046,-2.516928 0.03493,-4.671483 0.06732,-4.7879 0.05607,-0.201583 0.08894,-0.211666 0.69006,-0.211666 h 0.631183 l 0.02488,0.613833 c 0.0293,0.722995 0.08819,0.752605 0.647596,0.325602 0.76281,-0.582266 1.902241,-0.977943 2.823589,-0.980517 l 0.448062,-0.0013 -0.02473,0.656166 -0.02473,0.656167 -0.612019,0.05467 c -1.242007,0.110946 -2.374626,0.916446 -2.926319,2.081146 l -0.271662,0.573519 -0.04233,2.878666 -0.04233,2.878667 -0.593599,0.02447 c -0.388934,0.01603 -0.629768,-0.0117 -0.6985,-0.08043 z m 6.474233,0.04521 c -0.03289,-0.03289 -0.0598,-2.19848 -0.0598,-4.812423 0,-3.583594 0.02499,-4.777613 0.1016,-4.854222 0.05912,-0.05912 0.342583,-0.1016 0.678021,-0.1016 h 0.576422 l -0.02185,4.8895 -0.02185,4.8895 -0.596366,0.02452 c -0.328001,0.01349 -0.623276,-0.0024 -0.656167,-0.03528 z m 0.134411,-12.9220778 -0.435004,-0.4445 0.395563,-0.4445307 c 0.217559,-0.2444919 0.454145,-0.4445169 0.525745,-0.4445 0.143412,3.39e-5 0.928151,0.7583999 0.928151,0.8969572 0,0.075073 -0.868817,0.8810735 -0.949741,0.8810735 -0.01634,0 -0.225462,-0.200025 -0.464714,-0.4445 z"
         id="path258" /><path
         style="display:inline;fill:#e6113d;stroke-width:0.0846667"
         d="M 11.637967,35.108698 C 9.7204747,34.818586 8.0799012,33.358319 7.5995479,31.514119 7.4134707,30.79972 7.4044952,21.306765 7.5897517,21.153015 c 0.071935,-0.0597 0.3334678,-0.08914 0.6561667,-0.07387 l 0.5365589,0.0254 0.022395,2.55258 c 0.016958,1.932803 0.047794,2.561641 0.1269998,2.5899 0.057533,0.02052 0.6189548,-0.151698 1.2476049,-0.382719 1.297182,-0.476699 2.184281,-0.590738 3.150964,-0.405065 1.762759,0.338577 3.223244,1.706773 3.756691,3.519304 0.180476,0.613216 0.20163,1.758349 0.04457,2.413 -0.589383,2.456716 -3.008056,4.093228 -5.49374,3.717151 z m 2.214466,-1.673889 c 0.721614,-0.35525 1.318254,-0.953125 1.67567,-1.67914 0.26751,-0.54339 0.281707,-0.619254 0.281707,-1.505342 0,-0.878989 -0.0158,-0.965397 -0.272366,-1.489683 -0.890379,-1.819457 -3.190492,-2.552948 -4.887326,-1.558536 -0.522693,0.306319 -1.204512,1.061415 -1.4700554,1.628049 -0.2045394,0.436457 -0.228252,0.583811 -0.228252,1.41839 0,0.871733 0.017301,0.967856 0.2703516,1.50205 0.4316713,0.911265 1.1868108,1.567108 2.1849818,1.897669 0.209087,0.06924 0.633516,0.103112 1.10928,0.08852 0.673254,-0.02065 0.842047,-0.0588 1.336009,-0.301977 z m 8.752487,1.684087 c -1.625673,-0.293392 -2.91714,-1.234108 -3.628281,-2.64287 -0.353483,-0.700244 -0.499829,-1.347868 -0.499829,-2.211879 0,-1.341861 0.40115,-2.373552 1.294797,-3.330006 0.915431,-0.979769 1.938784,-1.457177 3.277203,-1.52886 1.51446,-0.08111 2.671566,0.356256 3.732621,1.410874 1.003556,0.997467 1.429181,2.019346 1.43104,3.43577 0.0016,1.243974 -0.346617,2.224074 -1.133491,3.190044 -0.978978,1.201798 -2.97057,1.948268 -4.47406,1.676927 z m 2.137223,-1.623931 c 1.821642,-0.852001 2.617536,-2.918264 1.798356,-4.66881 -1.294354,-2.765972 -5.097093,-2.764401 -6.391947,0.0026 -0.333941,0.713614 -0.413321,1.680345 -0.19862,2.418891 0.299809,1.031305 1.299123,2.059043 2.318647,2.384597 0.641648,0.204891 1.890075,0.135585 2.473564,-0.137319 z m 4.072124,1.373977 c -0.249008,-0.185786 -0.470074,-0.355123 -0.491255,-0.376304 -0.02118,-0.02118 0.650358,-0.955388 1.492309,-2.076013 0.841952,-1.120624 1.530822,-2.080537 1.530822,-2.133139 0,-0.0526 -0.638175,-0.950126 -1.418167,-1.994498 -0.779992,-1.044372 -1.467889,-1.969849 -1.52866,-2.056615 -0.09947,-0.142019 -0.05999,-0.196618 0.395736,-0.547292 0.278426,-0.214244 0.537698,-0.388058 0.57616,-0.386254 0.03846,0.0018 0.678826,0.820953 1.423033,1.820333 0.809421,1.086955 1.409301,1.817053 1.492969,1.817053 0.08338,0 0.676951,-0.717963 1.469738,-1.777745 0.73143,-0.977761 1.365255,-1.799614 1.408501,-1.826343 0.07716,-0.04769 0.807781,0.443418 0.994647,0.668578 0.07457,0.08985 -0.235256,0.555225 -1.437487,2.159214 -0.928636,1.238964 -1.514044,2.092882 -1.485601,2.167001 0.02582,0.06728 0.723325,1.023851 1.550019,2.125719 l 1.503079,2.003396 -0.20715,0.160364 c -0.504846,0.390826 -0.839658,0.599945 -0.916586,0.572487 -0.04572,-0.01632 -0.685848,-0.829771 -1.42251,-1.807671 -0.736664,-0.9779 -1.396538,-1.778 -1.466388,-1.778 -0.06985,0 -0.72569,0.8001 -1.457421,1.778 -0.731732,0.9779 -1.380512,1.788693 -1.441732,1.801761 -0.06122,0.01307 -0.315046,-0.128246 -0.564056,-0.314032 z"
         id="path254" /></g></g></svg>
