<?xml version="1.0" encoding="UTF-8" standalone="no"?>
<!-- Created with Inkscape (http://www.inkscape.org/) -->

<svg
   width="160mm"
   height="160mm"
   viewBox="0 0 160 160"
   version="1.1"
   id="svg5"
   inkscape:version="1.1.1 (3bf5ae0d25, 2021-09-20)"
   sodipodi:docname="kayo.svg"
   xmlns:inkscape="http://www.inkscape.org/namespaces/inkscape"
   xmlns:sodipodi="http://sodipodi.sourceforge.net/DTD/sodipodi-0.dtd"
   xmlns="http://www.w3.org/2000/svg"
   xmlns:svg="http://www.w3.org/2000/svg">
  <sodipodi:namedview
     id="namedview7"
     pagecolor="#ffffff"
     bordercolor="#666666"
     borderopacity="1.0"
     inkscape:pageshadow="2"
     inkscape:pageopacity="0.0"
     inkscape:pagecheckerboard="0"
     inkscape:document-units="mm"
     showgrid="false"
     inkscape:zoom="0.5499273"
     inkscape:cx="142.74614"
     inkscape:cy="591.89642"
     inkscape:window-width="1581"
     inkscape:window-height="1161"
     inkscape:window-x="987"
     inkscape:window-y="0"
     inkscape:window-maximized="0"
     inkscape:current-layer="layer1"
     width="200mm" />
  <defs
     id="defs2" />
  <g
     inkscape:label="Layer 1"
     inkscape:groupmode="layer"
     id="layer1">
    <path
       style="fill:#06e277;fill-opacity:1;stroke-width:0.264583"
       d="m 88.748087,112.62076 c 0,-0.16105 0.132307,-1.18238 0.294012,-2.26962 l 0.294016,-1.97681 1.778642,-0.006 c 4.44398,-0.014 7.69675,-2.76815 9.112303,-7.71534 0.22724,-0.794153 1.72732,-10.552194 3.33353,-21.684537 1.60621,-11.132344 2.97487,-20.389452 3.04147,-20.571353 0.14541,-0.397193 4.37103,-0.473573 4.37103,-0.07902 0,0.138446 -1.37015,9.945147 -3.04477,21.792669 -1.8961,13.414478 -3.24118,22.111861 -3.56541,23.054271 -1.59226,4.62797 -5.002573,7.80604 -9.661703,9.00373 -2.14274,0.55082 -5.95312,0.83988 -5.95312,0.45162 z m 0.71981,-4.98152 c 0,0 0.10389,-1.00397 0.19707,-1.76125 0.33936,-2.75754 0.40755,-2.75636 0.40755,-2.75636 3.35833,-0.17241 3.84967,-1.24882 4.45496,-2.53309 0.3942,-0.836383 1.22632,-6.132363 3.3346,-21.222833 1.54512,-11.059583 2.867283,-20.376223 2.938123,-20.703645 0.12193,-0.56361 0.25534,-0.595312 2.505,-0.595312 2.17942,0 2.37621,0.04273 2.37621,0.515876 0,0.943653 -5.53908,39.008841 -5.940973,40.826971 -0.81656,3.694163 -2.6548,6.305343 -5.26271,7.475603 -1.60033,0.71812 -4.135,0.80872 -4.66963,0.7753 z M 118.91059,94.434727 c -4.15959,-1.15595 -6.93901,-4.364021 -7.65187,-8.831958 -0.23296,-1.460113 -0.14122,-2.675403 0.64909,-8.598958 1.10898,-8.312083 1.2595,-9.030726 2.38715,-11.396437 2.00321,-4.202607 5.35462,-6.913964 9.85144,-7.970014 2.41176,-0.566385 6.7551,-0.383204 8.8598,0.373666 4.26192,1.53262 6.80647,5.340633 6.80647,10.186116 0,2.359525 -1.73935,14.916914 -2.29338,16.557238 -1.48756,4.404289 -4.48144,7.564703 -8.71926,9.204297 -1.54983,0.59963 -2.31007,0.7171 -5.12695,0.79223 -2.38853,0.0637 -3.71154,-0.0241 -4.76249,-0.31618 z m 9.04782,-4.674129 c 0.82896,-0.38245 2.03013,-1.218292 2.66926,-1.857427 2.03039,-2.030389 2.46153,-3.339867 3.52757,-10.714022 1.14978,-7.95344 1.1373,-9.84882 -0.0791,-12.001827 -3.16924,-5.609635 -12.63498,-4.577683 -15.67843,1.709261 -0.66078,1.36498 -0.81598,2.179357 -1.87214,9.823291 -0.91029,6.588228 -0.90008,7.608188 0.0978,9.768128 0.77695,1.681797 1.78113,2.695797 3.47784,3.511859 1.16879,0.562152 1.61576,0.625787 3.83646,0.546193 2.02954,-0.07274 2.80376,-0.223989 4.02074,-0.785456 z m -6.53428,0.0902 c -1.88591,-0.499213 -3.79276,-2.102292 -4.40287,-3.701468 -0.75531,-1.979776 -0.7351,-3.004225 0.19649,-9.958628 0.50683,-3.783541 1.04736,-7.302245 1.20118,-7.819344 0.7347,-2.46988 3.45798,-5.175314 5.87398,-5.835483 1.46852,-0.40127 4.29615,-0.3696 5.74452,0.06434 1.72763,0.517609 3.52901,2.371695 4.06084,4.179651 0.58815,1.999419 0.54865,2.768582 -0.52523,10.227768 -1.05225,7.308931 -1.43805,8.518275 -3.31674,10.396963 -1.64048,1.640482 -3.51041,2.441302 -5.97357,2.558261 -1.13567,0.05392 -2.42204,0.0035 -2.8586,-0.112064 z m 4.31261,-4.903708 c 0.81797,-0.425585 1.69352,-1.330987 2.15926,-2.232866 0.17616,-0.341125 0.72076,-3.484843 1.21022,-6.98604 0.78368,-5.605753 0.84749,-6.467387 0.53447,-7.216547 -0.9419,-2.254298 -3.94182,-2.328177 -5.78106,-0.142367 -0.95947,1.140262 -1.13234,1.854205 -2.03597,8.408389 -0.72985,5.293728 -0.77309,5.968151 -0.43452,6.77844 0.20678,0.4949 0.65316,1.093975 0.99195,1.331274 0.75647,0.529852 2.396,0.559028 3.35565,0.05972 z m -36.412843,9.084467 c -3.200093,-0.62975 -6.318599,-3.038087 -7.608422,-5.87577 -1.297334,-2.854206 -1.2109,-4.958027 0.752475,-18.315084 l 1.672333,-11.377083 2.303902,-0.07645 c 1.267145,-0.04205 2.303902,0.02839 2.303902,0.15653 0,0.128138 -0.714375,5.440042 -1.5875,11.804234 -0.873125,6.364192 -1.5875,11.957377 -1.5875,12.429301 0,1.877915 0.783352,3.673563 2.207725,5.060683 1.636705,1.593903 2.751005,1.978821 5.728495,1.978821 h 2.18629 l -0.18267,1.653646 c -0.33542,3.036492 -0.15105,2.848342 -2.75863,2.815282 -1.25753,-0.016 -2.80121,-0.1303 -3.4304,-0.25412 z m -30.635452,-0.37528 c -3.285292,-0.71465 -5.660459,-2.53622 -7.039602,-5.398811 -1.264774,-2.625198 -1.282861,-5.032541 -0.100256,-13.344336 0.861462,-6.054693 1.010976,-6.728219 1.908839,-8.598958 0.715322,-1.490408 1.473311,-2.527218 2.852727,-3.902075 2.994358,-2.984468 5.780989,-4.072294 10.445458,-4.077628 l 2.746066,-0.0031 -0.175607,1.389063 c -0.406527,3.215671 -0.327207,3.074794 -1.569402,2.787308 -4.418285,-1.022535 -9.790991,2.299123 -10.850716,6.708425 -0.366987,1.526961 -1.796896,12.356364 -1.811774,13.721453 -0.02125,1.950056 0.656379,3.492656 2.08769,4.752546 1.657588,1.459066 3.346534,1.967701 5.942925,1.789742 1.141457,-0.07824 2.075378,-0.03931 2.075378,0.08651 0,0.125817 -0.131971,1.116078 -0.293272,2.200584 -0.247142,1.661657 -0.382405,1.995737 -0.859896,2.123857 -0.950793,0.25512 -3.650877,0.13694 -5.358558,-0.23454 z m -38.467438,-0.44176 c 0,-0.485874 5.459931,-40.393557 5.976118,-43.680584 l 0.155811,-0.992188 h 2.357993 c 1.716354,0 2.354755,0.09 2.346091,0.330729 -0.0065,0.181901 -1.412886,10.331979 -3.125199,22.555728 l -3.113296,22.225005 -2.298759,0.0765 c -2.226004,0.074 -2.298759,0.0577 -2.298759,-0.51514 z m 5.303611,0.24025 c 0.0066,-0.1819 0.512586,-3.861552 1.124479,-8.176998 l 1.112534,-7.846266 11.7417,-14.444879 11.7417,-14.444879 h 2.908924 c 2.289133,0 2.853645,0.07047 2.649463,0.330729 -0.142705,0.181901 -5.356764,6.641042 -11.586802,14.353646 -6.230035,7.712603 -11.709523,14.499165 -12.176639,15.081249 -0.815925,1.016741 -0.877176,1.266293 -1.558564,6.349999 -0.390095,2.910417 -0.835556,6.15487 -0.989915,7.209896 l -0.280652,1.918233 H 27.86176 c -1.709251,0 -2.345833,-0.0901 -2.337142,-0.33073 z m 10.715829,-6.797675 -3.378515,-7.128401 1.634033,-1.999724 c 0.898717,-1.099849 1.715702,-1.999723 1.815519,-1.999723 0.140043,0 8.075264,16.862639 8.471673,18.002623 0.05239,0.15067 -0.977892,0.25363 -2.537999,0.25363 h -2.626196 z m 5.147225,-2.335882 c -2.401093,-5.199382 -4.365625,-9.540732 -4.365625,-9.647438 0,-0.400944 3.137596,-4.181171 3.3054,-3.982397 0.236855,0.280572 10.585225,22.678652 10.585225,22.910732 0,0.10087 -1.16086,0.18095 -2.579688,0.17796 l -2.579687,-0.005 -4.365625,-9.453434 z m 24.341666,8.907717 c 0,-0.514704 4.308623,-32.372987 4.639156,-34.302286 l 0.147323,-0.859896 h 2.192872 c 1.206079,0 2.249363,0.05649 2.318411,0.125539 0.06905,0.06905 -0.977426,7.956936 -2.325494,17.528645 -1.348068,9.571709 -2.456281,17.551928 -2.462694,17.733838 -0.0084,0.23773 -0.644057,0.33073 -2.260616,0.33073 -2.109481,0 -2.248958,-0.0345 -2.248958,-0.55657 z m 5.302551,0.0935 c 0.006,-0.25466 1.107877,-8.261619 2.448642,-17.793233 l 2.437757,-17.330208 2.181566,-0.07684 c 1.833248,-0.06458 2.181566,-0.01093 2.181566,0.336058 0,0.227097 -1.071562,8.219855 -2.38125,17.761682 -1.309687,9.541829 -2.381249,17.397561 -2.381249,17.457171 0,0.0596 -1.012032,0.10839 -2.248959,0.10839 -1.969621,0 -2.247606,-0.0575 -2.238073,-0.46302 z m 20.400858,-4.310316 c -2.87615,-0.588028 -4.735147,-2.631334 -4.98494,-5.479168 -0.09061,-1.03301 0.345728,-5.046536 1.359136,-12.501666 0.820922,-6.039114 1.560356,-11.36716 1.643184,-11.840103 l 0.1506,-0.859896 h 2.3518 c 1.29349,0 2.35181,0.04918 2.35181,0.109281 0,0.0601 -0.77248,5.41392 -1.71662,11.89737 -1.22062,8.38201 -1.6468,11.971739 -1.47497,12.423682 0.34189,0.899231 1.53963,1.763416 2.44406,1.763416 0.42273,0 1.25165,-0.24643 1.84204,-0.547624 0.59039,-0.301194 1.11636,-0.504693 1.16884,-0.452221 0.0917,0.09169 -0.63133,5.284925 -0.75013,5.387946 -0.2477,0.214805 -3.46326,0.287396 -4.38481,0.09898 z m -30.39521,-0.262483 c -2.726486,-0.55178 -4.604652,-2.246019 -5.091943,-4.593293 -0.239101,-1.15175 -0.137168,-2.408505 0.667877,-8.234288 0.583904,-4.225475 1.138844,-7.302987 1.439926,-7.985376 0.639607,-1.449631 2.445337,-3.233952 4.104066,-4.055401 1.132274,-0.560734 1.691529,-0.655145 3.880805,-0.655145 1.40684,0 2.615036,0.05953 2.684883,0.132291 0.11348,0.118213 -0.07297,1.701049 -0.490945,4.16773 -0.145148,0.856596 -0.149233,0.858663 -0.914321,0.463021 -1.456023,-0.752941 -2.859449,-0.46889 -4.294409,0.869177 -0.993545,0.926457 -1.148117,1.523958 -2.033778,7.86153 -0.864674,6.1874 -0.814798,6.69414 0.749842,7.618396 1.000358,0.590926 1.662817,0.569444 2.967644,-0.09623 0.590388,-0.301194 1.121335,-0.499721 1.179882,-0.441174 0.05855,0.05855 -0.03256,1.089454 -0.202469,2.290897 -0.256297,1.812338 -0.402744,2.219876 -0.859695,2.392413 -1.005239,0.379563 -2.652887,0.495043 -3.787365,0.265452 z M 28.158506,75.060256 c 0,-0.633039 3.355808,-24.938012 3.579238,-25.923193 0.126991,-0.559951 0.268294,-0.595313 2.378928,-0.595313 2.151553,0 2.24379,0.0245 2.240824,0.595313 -0.0017,0.327422 -0.357675,3.086917 -0.791052,6.13221 -0.433378,3.045296 -0.753282,5.571577 -0.710899,5.613961 0.04238,0.04238 2.316161,-2.717112 5.052839,-6.132213 l 4.975781,-6.209271 h 2.632993 c 1.945901,0 2.58297,0.08094 2.441302,0.310163 -0.27709,0.448342 -20.71359,25.651292 -21.304269,26.273111 -0.492382,0.51834 -0.495685,0.517908 -0.495685,-0.06477 z"
       id="path854"
       sodipodi:nodetypes="csccssssscsccccsssssssssccssssssssscssscssssssssssssssssssssssssssssssscsssssscscsscssssccsssssssssccsscscsccsscscccsssssscscccsssscccsssccccsscsssssssscsssssssssscssssssssssssssssssssssssssssssssssscsssss"
       inkscape:export-filename="C:\Users\benml\OneDrive\source\Web\hubo-svelte\static\img\kayo.png"
       inkscape:export-xdpi="740.711"
       inkscape:export-ydpi="740.711" />
  </g>
</svg>
