<?xml version="1.0" encoding="UTF-8" standalone="no"?>
<!-- Created with Inkscape (http://www.inkscape.org/) -->

<svg
   width="160mm"
   height="160mm"
   viewBox="0 0 160 160"
   version="1.1"
   id="svg5"
   inkscape:version="1.1.1 (3bf5ae0d25, 2021-09-20)"
   sodipodi:docname="nine.svg"
   xmlns:inkscape="http://www.inkscape.org/namespaces/inkscape"
   xmlns:sodipodi="http://sodipodi.sourceforge.net/DTD/sodipodi-0.dtd"
   xmlns="http://www.w3.org/2000/svg"
   xmlns:svg="http://www.w3.org/2000/svg">
  <sodipodi:namedview
     id="namedview7"
     pagecolor="#505050"
     bordercolor="#eeeeee"
     borderopacity="1"
     inkscape:pageshadow="0"
     inkscape:pageopacity="0"
     inkscape:pagecheckerboard="0"
     inkscape:document-units="mm"
     showgrid="false"
     inkscape:zoom="1.6107452"
     inkscape:cx="159.8639"
     inkscape:cy="369.70466"
     inkscape:window-width="1581"
     inkscape:window-height="1161"
     inkscape:window-x="987"
     inkscape:window-y="0"
     inkscape:window-maximized="0"
     inkscape:current-layer="layer1" />
  <defs
     id="defs2" />
  <g
     inkscape:label="Layer 1"
     inkscape:groupmode="layer"
     id="layer1">
    <path
       style="fill:#00a4d6;fill-opacity:1;stroke:none;stroke-width:0.352778"
       d="m 25.261531,28.474475 c -9.426399,2.291291 -5.164455,16.87583 4.233333,14.84383 10.191044,-2.203803 5.822244,-17.287875 -4.233333,-14.84383 m 21.519444,0.03704 c -9.675283,2.796469 -4.653139,17.438158 4.938889,14.66603 9.730316,-2.812697 4.681361,-17.446625 -4.938889,-14.66603 m 21.872222,-0.02822 c -9.591322,2.516364 -4.945945,17.055747 4.586111,14.784917 9.970911,-2.375606 5.287786,-17.375364 -4.586111,-14.784917 m 59.266663,42.489261 c -12.00821,0 -24.58261,-0.01372 -36.688886,0.06138 -3.485241,-0.08239 -6.256849,2.989782 -6.24011,6.338821 0.01674,3.349039 3.045807,6.529362 6.172923,6.568775 l 34.639403,0.436576 c 3.78324,0.04768 9.40506,0.944034 12.68483,-1.359605 3.64702,-2.561872 2.48461,-8.554861 2.48461,-12.398728 v -25.4 c 0,-3.869266 0.72743,-8.580261 -0.18803,-12.347222 -0.5662,-2.328686 -2.70615,-4.309533 -5.10363,-4.549069 -7.63434,-0.153055 -15.87818,-0.03704 -23.63611,-0.03704 H 95.464307 c -2.441927,0 -5.950138,-0.232471 -7.755819,0.785989 -2.608086,1.563864 -2.827514,4.242506 -2.827514,6.975122 -3.52e-4,6.763103 -0.145338,15.304911 0.188031,21.872222 1.395589,5.742164 8.074378,4.586111 12.511969,4.586111 h 21.872216 c 1.85879,0 8.43625,0.112734 8.43625,0.112734 0,0 0.0304,6.480683 0.0304,8.353933 m 0,-29.633333 v 8.466666 H 97.933752 V 41.339222 H 127.91986 M 25.967086,48.581397 c -9.900249,2.269066 -6.355186,17.433572 3.527778,15.148983 9.721497,-2.247547 6.069894,-17.3482 -3.527778,-15.148983 m 21.519444,0 c -10.068277,2.326922 -5.962297,17.439216 3.880556,15.094302 9.571566,-2.280002 5.720997,-17.312922 -3.880556,-15.094302 m 21.872222,-0.0035 c -9.829447,2.131836 -6.39445,17.445919 3.527778,15.152511 9.796639,-2.264833 6.153855,-17.252597 -3.527778,-15.152511 M 25.614308,69.042508 c -9.659231,2.233083 -5.660954,17.212733 3.880556,14.897805 9.869311,-2.394303 5.846586,-17.146411 -3.880556,-14.897805 m 21.872222,0 c -9.796286,2.260952 -6.101291,17.309747 3.527778,14.967302 9.826625,-2.390422 6.293556,-17.2339 -3.527778,-14.967302 m 21.519444,0.0011 c -9.423399,2.245078 -5.803547,17.171811 3.527778,15.015633 10.151181,-2.344914 6.53662,-17.413111 -3.527778,-15.015633 m -49.03611,22.742836 v 27.163886 l 0.212866,10.82392 8.452063,-0.0582 0.154515,-20.29071 14.532693,20.60613 8.0899,-0.005 -0.137902,-5.75434 c -1.805548,-4.04371 -3.029338,-6.7317 -3.13485,-12.57153 -0.105512,-5.83984 3.323194,-12.149549 3.323194,-12.149549 0,0 -0.09526,-5.173475 -0.09526,-7.764627 H 42.194864 V 111.89477 L 27.847042,91.79983 19.969864,91.786444 m 45.508333,0.164041 c -19.267664,3.467453 -20.546131,34.207445 -1.058334,38.459125 2.703336,0.58984 5.404556,0.59055 8.113889,0.0727 23.076958,-4.41149 16.38935,-42.75137 -7.055555,-38.531795 m 17.133315,2.90535 c 0,0 3.551411,4.626799 5.000189,8.376985 1.448778,3.75018 1.696201,10.5422 1.696201,10.5422 l 4.37455,12.77116 c 2.010253,5.7842 8.653718,5.91797 10.788978,0.16526 l 6.86787,-20.81389 h 0.35278 l 6.25342,17.95006 c 1.45159,3.43803 2.25991,6.36264 6.75634,6.37036 4.49643,0.008 6.8377,-6.87944 7.81172,-10.20931 l 7.67784,-27.756535 -9.9739,-0.103026 -5.77337,24.761251 -8.43712,-24.722665 -9.40798,-0.03859 -7.442302,25.648935 -6.161865,-25.51769 -11.124246,-0.141153 m -13.922976,9.628373 c 11.826522,-1.41429 13.23975,18.0922 1.411111,19.23696 -11.678708,1.12995 -12.92225,-17.86007 -1.411111,-19.23696 z"
       id="path2508"
       sodipodi:nodetypes="ccccccccccczsscssccsscccssccccccccccccccccccccccccccccccccczccccccccccczcccccczcccccccccccc" />
  </g>
</svg>
