<?xml version="1.0" encoding="UTF-8" standalone="no"?>
<!-- Generator: Adobe Illustrator 16.0.0, SVG Export Plug-In . SVG Version: 6.00 Build 0)  -->

<svg
   version="1.1"
   id="Layer_1"
   x="0px"
   y="0px"
   width="160"
   height="160"
   viewBox="-161.599 -100.544 160 160"
   enable-background="new -161.599 -100.544 1000 622.214"
   xml:space="preserve"
   sodipodi:docname="paramount-seeklogo.com.svg"
   inkscape:version="1.2.1 (9c6d41e410, 2022-07-14)"
   xmlns:inkscape="http://www.inkscape.org/namespaces/inkscape"
   xmlns:sodipodi="http://sodipodi.sourceforge.net/DTD/sodipodi-0.dtd"
   xmlns="http://www.w3.org/2000/svg"
   xmlns:svg="http://www.w3.org/2000/svg"><defs
   id="defs7" /><sodipodi:namedview
   id="namedview5"
   pagecolor="#505050"
   bordercolor="#ffffff"
   borderopacity="1"
   inkscape:showpageshadow="0"
   inkscape:pageopacity="0"
   inkscape:pagecheckerboard="1"
   inkscape:deskcolor="#505050"
   showgrid="false"
   inkscape:zoom="4.84"
   inkscape:cx="68.285124"
   inkscape:cy="74.173554"
   inkscape:window-width="3786"
   inkscape:window-height="1177"
   inkscape:window-x="46"
   inkscape:window-y="-8"
   inkscape:window-maximized="1"
   inkscape:current-layer="Layer_1" />
<path
   fill="#0064ff"
   d="m -90.335615,-17.365354 c -0.393354,-0.163165 -1.038174,-0.886687 0.03456,-2.90145 l 2.491939,-5.208148 c 0.07567,-0.157407 -0.106218,-0.354484 -0.219793,-0.220753 l -2.178887,2.190725 c -1.030976,1.076086 -2.779876,4.100709 -3.118523,4.660427 l -2.647105,4.37585 c 0.196598,-0.0063 0.361202,0.148288 0.36744,0.344885 0.0019,0.06479 -0.01359,0.128772 -0.04528,0.1854 l -2.419475,4.063758 c -0.590751,1.00778 0.470619,1.712267 0.614427,1.480318 3.802854,-6.12523 6.014694,-5.636216 6.014694,-5.636216 l 1.269484,-2.939682 c 0.06686,-0.147328 0.0016,-0.32089 -0.145728,-0.387756 -0.0055,-0.0027 -0.01152,-0.005 -0.01776,-0.0074 z M -81.689812,-68.544 c -21.742478,0 -39.368098,17.616975 -39.368098,39.348735 -0.0115,8.412733 2.68742,16.605514 7.69674,23.364206 1.65148,-0.712805 2.5692,-1.778333 3.22474,-2.594316 l 7.33008,-9.370125 c 0.15437,-0.197558 0.35593,-0.352884 0.58627,-0.451902 l 1.10345,-0.474617 12.05258,-15.280522 1.74762,-1.367543 3.591221,-4.996195 c 0.09278,-0.129252 0.205875,-0.242987 0.334966,-0.336567 l 1.566861,-1.138473 c 0.387116,-0.281218 0.909882,-0.285698 1.301477,-0.01088 l 1.901347,1.333951 c 1.008741,0.707526 1.826324,1.653721 2.380283,2.754122 l 7.615946,13.370857 c 0.124293,0.255144 0.335607,0.4575 0.595711,0.570755 1.493595,0.743199 2.406037,0.87453 4.360813,2.996949 0.912122,0.989545 4.909014,5.457535 10.510517,12.401467 0.814064,1.113998 1.903907,1.997006 3.162353,2.562644 4.994116,-6.753573 7.683772,-14.934197 7.671934,-23.333813 0,-21.731921 -17.624812,-39.348733 -39.366811,-39.348733 z m -28.751198,41.517544 -2.55257,-0.82862 -1.57677,2.169129 v -2.680698 l -2.55272,-0.82878 2.55272,-0.82878 v -2.681498 l 1.57677,2.16961 2.55257,-0.828621 -1.5771,2.169449 z m -0.60514,8.773935 -0.8291,2.550326 -0.82911,-2.550326 h -2.68277 l 2.17025,-1.576298 -0.82895,-2.550166 2.17042,1.576298 2.17056,-1.576298 -0.8291,2.550166 2.17057,1.576298 z m 0.51236,-20.310789 0.8291,2.550166 -2.17056,-1.576298 -2.17042,1.576298 0.82894,-2.550166 -2.17024,-1.576299 h 2.68277 l 0.8291,-2.550166 0.82926,2.550166 h 2.68278 z m 4.30803,-5.768828 -1.57598,-2.169608 -2.55257,0.828619 1.57694,-2.169289 -1.57694,-2.169448 2.55257,0.828619 1.57694,-2.169448 v 2.681657 l 2.55256,0.827181 -2.55256,0.82894 v 2.681498 z m 6.709416,-9.387721 -0.829096,2.550326 -0.8291,-2.550167 h -2.68293 l 2.17056,-1.576297 -0.82894,-2.550326 2.17041,1.575978 2.170248,-1.576299 -0.828939,2.552406 2.170568,1.576298 h -2.682933 v -0.0019 z m 8.454647,-4.305946 -1.576937,2.16961 v -2.680858 l -2.552726,-0.82862 2.552726,-0.82894 v -2.681498 l 1.576937,2.169609 2.551447,-0.82862 -1.576938,2.169449 1.577097,2.169288 z m 10.713355,-2.458026 0.829099,2.550167 -2.170569,-1.576298 -2.170568,1.576298 0.82814,-2.549047 -2.170249,-1.576298 h 2.682778 l 0.82942,-2.550166 0.8291,2.550166 h 2.682776 z m 9.606393,1.946778 v 2.681497 l -1.576297,-2.169608 -2.552406,0.828779 1.576937,-2.169288 -1.576777,-2.169449 2.552566,0.82862 1.576297,-2.169609 v 2.681498 l 2.552565,0.82894 z m 17.802214,27.172339 2.552406,0.828621 1.576458,-2.16961 v 2.681498 l 2.552725,0.82878 -2.552725,0.82878 v 2.681338 l -1.576458,-2.169289 -2.552406,0.828619 1.578698,-2.169448 z m -10.094768,-19.804179 -0.829579,-2.550327 H -66.5467 l 2.169769,-1.576297 -0.827181,-2.550486 2.169609,1.576297 2.16961,-1.575977 -0.827341,2.550166 2.169928,1.576297 h -2.682776 z m 5.880483,6.837395 v -2.681338 l -2.552566,-0.828939 2.552566,-0.827181 v -2.682777 l 1.576298,2.169449 2.552566,-0.828621 -1.576298,2.169449 1.576298,2.16929 -2.552566,-0.828621 z m 4.819114,4.19269 0.829899,-2.550166 0.82958,2.550166 h 2.682618 l -2.169609,1.576297 0.82958,2.550166 -2.171849,-1.576297 -2.169769,1.576297 0.82958,-2.550166 -2.172008,-1.576297 z m 1.659319,21.886287 -0.82958,2.550326 -0.829899,-2.550326 h -2.682618 l 2.172009,-1.576298 -0.82958,-2.550166 2.169769,1.576298 2.171848,-1.576298 -0.82958,2.550166 2.169609,1.576298 z m -16.754921,11.797758 c 0.189079,-0.274821 0.496372,-1.028577 -0.08046,-2.425393 l -1.742022,-4.682664 c -0.236429,-0.59779 0.281379,-0.960431 0.628823,-0.567396 0,0 3.292405,3.794695 4.14326,5.379151 l 1.623648,2.694296 c 1.396816,0.09023 5.25166,0.195317 8.962373,0.195317 -0.373678,-0.37096 -0.718724,-0.769593 -1.032896,-1.192382 -6.331905,-7.846775 -10.347672,-12.211747 -10.387823,-12.254938 -1.283241,-1.394417 -1.876393,-1.662359 -2.85522,-2.108022 -0.14173,-0.0643 -0.295456,-0.133731 -0.453662,-0.209075 v 1.191262 c 0.0097,0.08046 -0.04783,0.153566 -0.128452,0.163164 -0.0651,0.0077 -0.127653,-0.02879 -0.152767,-0.08943 l -9.309179,-16.34589 -0.02591,-0.05167 c -0.388236,-0.769913 -0.960432,-1.432169 -1.665879,-1.927902 l -0.908122,-0.638102 -4.441116,10.241137 c 0.530604,-1.6e-4 0.961071,0.429827 0.961391,0.960431 1.6e-4,0.131331 -0.02672,0.261383 -0.07902,0.381997 l -4.103269,9.48786 h 3.766543 c 1.455683,0 2.89761,0.283299 4.244837,0.835019 l 0.992745,0.406791 c 0,0 -2.99535,6.160102 -2.99535,9.403718 0.0044,0.589951 0.0867,1.176545 0.244588,1.744901 h 6.90458 l -0.319771,-1.944378 c 2.708533,0.604669 5.448737,1.056411 8.207978,1.353146 v -9.59e-4 z m -53.276272,9.981512 c 0,-6.336864 -6.72126,-9.388201 -14.70641,-9.388201 -8.54182,0 -16.37916,3.784298 -19.25582,9.652144 -0.7939,1.56334 -1.20645,3.292725 -1.20421,5.046264 -0.0363,1.51631 0.38328,3.008467 1.20421,4.28355 1.23254,1.819924 3.43382,2.963836 6.66288,2.963836 3.9633,0 7.10422,-2.171689 7.10422,-5.956147 0,0 0.0582,-1.05545 -1.17431,-1.05545 -0.99802,0 -1.26261,0.703687 -1.23301,1.05545 0.14749,2.963357 -1.61437,5.34012 -4.75545,5.34012 -3.52147,0 -4.99043,-2.99263 -4.99043,-6.190335 0,-6.542899 4.93156,-10.885635 10.06853,-12.762988 2.4006,-0.906523 4.94997,-1.354905 7.51597,-1.321154 5.81202,0 10.56746,2.230236 10.56746,8.215976 0,4.986918 -4.19749,9.241354 -9.21768,9.623031 l 0.2054,-0.674574 c 1.02778,-3.667843 2.2899,-7.68697 4.34418,-10.650487 0.11821,-0.177081 0.32313,-0.469658 0.55811,-0.762714 l -0.29321,-0.352404 c -0.43927,0.266502 -0.8611,0.560359 -1.26325,0.87997 -9.62718,7.511328 -9.9196,28.635541 -22.7485,28.635541 -0.44182,0 -0.88284,-0.02959 -1.32067,-0.08814 -2.67078,-0.439905 -4.08071,-2.230076 -4.08071,-4.722815 0,-0.498771 0.17643,-1.173985 0.17643,-1.554862 0.0204,-0.708646 -0.53764,-1.299398 -1.24628,-1.320034 -0.006,-1.6e-4 -0.0108,-1.6e-4 -0.0162,-1.6e-4 h -0.14636 c -1.14456,0 -1.61437,0.908283 -1.64381,2.200163 -0.0876,3.726231 2.67078,5.896639 6.92794,6.30807 0.46918,0.02911 0.939,0.05823 1.43808,0.05823 10.00919,0 16.14418,-7.569556 18.75705,-16.753002 1.32339,-0.155167 2.62999,-0.429827 3.90363,-0.820782 4.639,-1.29252 9.86218,-4.400964 9.86218,-9.888093 z m 95.344257,2.200162 h -3.523875 l -0.791668,1.848719 -1.380341,3.109885 h -1.642683 l -0.501171,1.05641 h 1.703949 l -2.056032,4.547813 c -1.465442,3.197865 -3.755825,6.337343 -5.076978,6.337343 -0.293057,0 -0.470298,-0.118055 -0.470298,-0.41031 0,-0.292257 0.0875,-0.558279 0.411271,-1.379381 0.411271,-0.96891 1.087123,-2.376764 1.585895,-3.403421 0.732641,-1.496156 1.907426,-3.814052 1.907426,-4.958284 0,-1.144391 -0.732801,-2.054114 -2.172168,-2.054114 -1.614209,0 -3.082051,0.96923 -4.433918,2.376125 l 0.88157,-2.112181 h -3.315921 l -2.701653,6.161381 c -1.084884,2.171209 -3.287767,5.780025 -4.668106,5.780025 -0.293057,0 -0.411271,-0.176442 -0.411271,-0.469498 0.02863,-0.263463 0.09789,-0.521006 0.205715,-0.763194 0.118055,-0.263942 1.732424,-4.048561 1.732424,-4.048561 l 2.935522,-6.718861 h -3.580662 l -2.848181,6.542259 c -0.879169,2.024841 -3.110205,5.457535 -4.549732,5.457535 -0.250666,0.02448 -0.474137,-0.158686 -0.498612,-0.40999 0,0 0,0 0,-4.81e-4 v -0.118054 c 0,-0.351604 0.264743,-0.997544 0.470458,-1.467201 l 1.496155,-3.285367 3.08189,-6.718861 h -3.549948 l -0.706727,1.525589 c -0.526926,1.026657 -1.408654,2.229595 -2.817149,2.229595 -0.675852,0 -0.997383,-0.263302 -1.14391,-0.527885 -0.205556,-2.259189 -1.644923,-3.462288 -3.758065,-3.462288 -2.935522,0 -5.01987,1.730985 -6.40037,3.843806 -0.904284,1.456164 -1.61469,3.024143 -2.112501,4.664267 -1.262606,2.083707 -2.582799,3.697757 -3.63985,3.697757 -0.264422,0 -0.440864,-0.147488 -0.440864,-0.499092 0,-0.352084 0.352564,-1.143911 0.469978,-1.438408 l 2.319017,-4.928689 c 0.64578,-1.524949 1.087123,-2.522653 1.087123,-3.520516 0,-1.056411 -0.732641,-1.819764 -1.938139,-1.819764 -1.673237,0 -3.493641,0.968909 -4.931728,2.552565 0.04879,-0.251305 0.0683,-0.50757 0.05855,-0.763195 0,-1.173824 -0.586593,-1.79017 -1.790811,-1.79017 -1.525909,0 -3.110845,0.910522 -4.549093,2.552726 l 0.939477,-2.289584 h -3.229538 l -2.729327,6.163142 c -1.2914,2.904969 -3.375587,5.780985 -4.550213,5.780985 -0.263782,0 -0.440064,-0.147808 -0.440064,-0.499412 0,-0.557159 0.616506,-1.93622 0.851015,-2.493858 l 3.610896,-8.185422 c 0.264103,-0.615867 -1.468161,-0.997864 -3.669603,-0.997864 -2.26015,0 -4.579328,1.115437 -6.281358,2.552565 -1.20342,0.997064 -2.08419,1.496316 -2.52537,1.496316 -0.14381,0.03072 -0.28554,-0.06095 -0.31657,-0.204596 -0.004,-0.01951 -0.006,-0.03935 -0.006,-0.05918 0,-0.498931 1.20342,-1.907906 1.20342,-2.99311 0,-0.498611 -0.26378,-0.821741 -0.93979,-0.821741 -1.29077,0 -2.81795,1.232531 -3.93324,2.522972 l 0.93949,-2.25951 h -3.16972 l -2.72949,6.161862 c -1.29187,2.904969 -3.43477,5.927353 -4.60891,5.927353 -0.26443,0 -0.43974,-0.146368 -0.43974,-0.499092 0,-0.557319 0.58707,-1.906306 0.90972,-2.611273 l 3.61073,-8.214695 c 0.2641,-0.615867 -1.468,-0.997864 -3.66992,-0.997864 -3.25833,0 -6.42884,2.200482 -8.10176,4.459832 -1.84904,2.434351 -3.11085,5.01667 -3.14061,7.129491 -0.0288,1.701551 0.8507,2.757641 2.61241,2.757641 1.96692,0 3.5525,-1.554702 4.46191,-2.728687 -0.0539,0.232269 -0.0934,0.467419 -0.11822,0.704487 0,1.172865 0.46982,2.02404 1.9079,2.02404 1.26197,0 2.93537,-1.05625 4.2858,-2.728687 l -1.08745,2.494178 h 3.43398 l 3.37606,-7.657857 c 1.118,-2.493379 2.38028,-3.783818 2.73125,-3.783818 0.0807,-0.01552 0.15884,0.03727 0.17452,0.118055 0.002,0.0093 0.003,0.01887 0.003,0.02848 0,0.264262 -0.52804,0.969229 -0.52804,1.613569 0,0.6445 0.35113,1.143911 1.29188,1.143911 0.73264,0 1.55502,-0.352243 2.2891,-0.822221 -1.73178,2.34813 -2.90704,4.812395 -2.90704,6.837396 -0.029,1.70171 0.85069,2.75764 2.61271,2.75764 1.84887,0 3.58082,-1.760417 4.52013,-2.934082 -0.0354,0.27258 -0.0549,0.546761 -0.0585,0.821421 0,1.144872 0.64609,2.112661 1.966775,2.112661 1.467201,0 2.641825,-0.910042 4.109507,-2.698933 l -1.087124,2.464424 h 3.521795 l 3.228579,-7.305933 c 1.409134,-3.168752 3.31672,-4.871103 4.256196,-4.871103 0.234669,-0.02415 0.445023,0.146369 0.469498,0.381358 0,4.79e-4 0,9.59e-4 1.6e-4,0.0014 v 0.08734 c -0.03871,0.356403 -0.13805,0.703687 -0.293376,1.026657 l -4.633714,10.709355 h 3.610576 l 3.287926,-7.452782 c 1.408174,-3.197546 2.964636,-4.753368 4.138622,-4.753368 0.352083,0 0.499411,0.177241 0.499411,0.55764 -0.03136,0.408551 -0.141089,0.807344 -0.32297,1.174944 l -3.170672,6.747495 c -0.291937,0.649459 -0.470617,1.343708 -0.528524,2.053314 0,1.027137 0.557478,1.938139 2.143373,1.938139 2.056194,0 3.610577,-1.555022 5.371155,-3.872759 v 0.498452 c 0.147327,1.848398 1.174464,3.462128 3.904111,3.462128 3.22874,0 5.842572,-2.229915 7.426228,-5.779225 0.59891,-1.247889 0.986505,-2.587118 1.146151,-3.962339 0.353523,0.179321 0.748638,0.260743 1.143911,0.236429 0.533485,0.0059 1.059131,-0.125573 1.526869,-0.381998 l -0.557639,1.202459 c -0.647699,1.349947 -1.352026,2.846422 -1.907426,4.108868 -0.351763,0.746397 -0.561158,1.551982 -0.616665,2.375484 0,1.261166 0.704167,2.171528 2.141295,2.171528 1.437128,0 3.405819,-1.349787 4.814634,-3.256733 h 0.03055 c -0.09438,0.394315 -0.144128,0.797427 -0.148927,1.202619 0,1.056571 0.323769,2.054274 1.79145,2.054274 1.70411,0 3.023024,-1.232532 4.315703,-2.787875 l -1.087123,2.464905 h 3.552188 l 2.848341,-6.454758 c 1.614369,-3.63809 3.22858,-5.838092 4.724415,-5.838092 0.257063,-0.0091 0.476856,0.18364 0.501171,0.439905 v 0.0867 c 0,0.616666 -0.881569,2.289103 -1.673397,3.961219 -0.735041,1.525749 -1.292839,2.698774 -1.673396,3.609297 -0.353204,0.766873 -0.562119,1.591974 -0.616667,2.434511 0,1.114318 0.616667,1.965493 1.997166,1.965493 2.053794,0 4.138462,-1.995087 5.25166,-3.491722 -0.251145,0.717445 -0.389195,1.469442 -0.409031,2.229276 0,2.054754 1.231253,3.081411 2.963677,3.081411 1.15111,-0.0088 2.270066,-0.377998 3.200265,-1.055771 1.349626,-0.939316 2.43691,-2.34733 3.346793,-3.63825 l -0.616666,-0.587392 c -0.850856,1.203259 -1.791452,2.34781 -2.760681,3.051977 -0.510769,0.431746 -1.15159,0.679693 -1.820084,0.704167 -0.732482,0 -1.20294,-0.381837 -1.20294,-1.319873 0,-0.937876 0.439585,-2.200963 1.115759,-3.902993 0.02815,-0.02863 0.997223,-2.200321 1.907265,-4.282749 0.763354,-1.761698 1.526709,-3.462608 1.673397,-3.814692 h 2.318696 l 0.469978,-1.056411 h -2.289902 z M -125.49038,22.656195 c -0.49877,0 -0.85102,-0.175961 -0.85102,-0.821422 0.0291,-1.731304 1.46705,-4.811755 3.25881,-7.27666 1.26181,-1.70171 2.90546,-2.962716 4.66683,-2.962716 l -2.23119,4.986757 c -1.67324,3.756144 -3.49317,6.074041 -4.84343,6.074041 z m 21.95699,0 c -0.49861,0 -0.85086,-0.175961 -0.8798,-0.821422 0.0291,-1.731304 1.4672,-4.811755 3.25832,-7.27666 1.261496,-1.70171 2.905775,-2.962716 4.666992,-2.962716 l -2.231516,4.986917 c -1.702026,3.844605 -3.433816,6.074041 -4.814466,6.074041 h 4.7e-4 z m 38.981617,-9.710851 c -0.0875,1.906466 -1.760898,6.512185 -3.727351,9.271267 -0.791668,1.114637 -1.467841,1.436967 -2.053794,1.436967 -0.822701,0 -1.05897,-0.675213 -0.940916,-1.672277 0.175003,-1.730824 1.614369,-5.779704 3.611536,-8.567099 0.909883,-1.261646 1.526869,-1.789851 2.231036,-1.789851 0.704486,1.6e-4 0.910042,0.587232 0.879489,1.320993 z m 54.7861821,-2.259989 3.2332181,-7.46222 h -3.8263692 l -3.233377,7.46222 h -8.132795 l -1.356665,3.1294 h 8.135194 l -3.233219,7.462219 h 3.82637 l 3.233537,-7.462219 h 8.1326343 l 1.3544259,-3.1294 z"
   id="path2"
   style="stroke-width:0.159965" />
</svg>
