<?xml version="1.0" encoding="UTF-8" standalone="no"?>
<!-- Created with Inkscape (http://www.inkscape.org/) -->

<svg
   width="160mm"
   height="160mm"
   viewBox="0 0 160 160"
   version="1.1"
   id="svg5"
   inkscape:version="1.1.2 (b8e25be833, 2022-02-05)"
   sodipodi:docname="sbs.svg"
   xmlns:inkscape="http://www.inkscape.org/namespaces/inkscape"
   xmlns:sodipodi="http://sodipodi.sourceforge.net/DTD/sodipodi-0.dtd"
   xmlns="http://www.w3.org/2000/svg"
   xmlns:svg="http://www.w3.org/2000/svg">
  <sodipodi:namedview
     id="namedview7"
     pagecolor="#505050"
     bordercolor="#eeeeee"
     borderopacity="1"
     inkscape:pageshadow="0"
     inkscape:pageopacity="0"
     inkscape:pagecheckerboard="0"
     inkscape:document-units="mm"
     showgrid="false"
     inkscape:zoom="0.733172"
     inkscape:cx="231.86919"
     inkscape:cy="280.97091"
     inkscape:window-width="1920"
     inkscape:window-height="1009"
     inkscape:window-x="-8"
     inkscape:window-y="-8"
     inkscape:window-maximized="1"
     inkscape:current-layer="layer1" />
  <defs
     id="defs2" />
  <g
     inkscape:label="Layer 1"
     inkscape:groupmode="layer"
     id="layer1">
    <path
       style="fill:#fdb717;fill-opacity:1;stroke-width:0.438243"
       d="m 23.216099,112.96291 c 0.699983,-8.9721 2.667537,-17.590209 6.278298,-27.499703 0.175651,-0.482065 -0.771022,0.937638 -2.103721,3.154894 -2.597379,4.321357 -6.095993,9.084734 -9.270501,12.621829 l -1.96659,2.19121 -0.01683,-2.25723 c -0.02582,-3.458567 1.527917,-11.675697 3.198501,-16.915868 0.826051,-2.591107 1.429897,-4.711105 1.34188,-4.711105 -0.08802,0 -0.639535,0.946254 -1.225592,2.102784 -1.236839,2.440785 -5.743572,8.586527 -7.431966,10.134828 l -1.158576,1.06244 v -1.333716 c 0,-3.120728 1.493954,-9.998452 3.313234,-15.253151 0.1669,-0.482067 -0.420157,0.295415 -1.304573,1.72773 -1.589813,2.574717 -5.4899865,7.426926 -5.7559411,7.160974 -0.075623,-0.07562 0.0517,-1.66138 0.2829352,-3.523915 0.7377152,-5.942104 3.9756179,-14.3507 7.5503349,-19.607662 1.676667,-2.465699 4.338738,-5.697148 4.693316,-5.697148 0.146904,0 0.112808,1.281635 -0.07578,2.848079 -0.301463,2.504076 -0.601107,3.952708 -1.541128,7.450612 -0.129548,0.482067 0.47523,-0.283705 1.343949,-1.701711 1.976603,-3.226397 5.030223,-7.412118 7.044405,-9.656041 l 1.54069,-1.716423 v 1.810444 c 0,2.234982 -1.444998,9.713283 -2.377614,12.304877 -1.051132,2.920933 -0.87431,2.750421 1.553188,-1.497776 1.2338,-2.159185 2.947568,-4.911837 3.808378,-6.117002 2.219302,-3.10712 7.515827,-9.422208 7.902497,-9.422208 1.020679,0 -1.236619,13.524177 -3.244872,19.44103 -0.584006,1.720643 -1.060219,3.227048 -1.058241,3.347564 0.0018,0.120517 1.085403,-1.811408 2.407623,-4.293169 3.744868,-7.028984 8.240331,-13.46365 13.91654,-19.919713 1.430448,-1.626974 2.791264,-2.958134 3.024042,-2.958134 0.54899,0 0.08129,5.751104 -0.980063,12.051661 -2.766075,16.420256 -10.57897,34.740793 -20.55799,48.206649 -3.022746,4.07893 -8.724913,10.73693 -9.195528,10.73693 -0.147218,0 -0.117655,-1.92279 0.06568,-4.27286 z m 62.576277,-8.01401 c -4.371116,-1.03836 -9.075733,-4.16026 -11.866437,-7.874333 -0.941065,-1.252439 -1.711025,-2.433037 -1.711025,-2.623559 0,-0.395706 8.039812,-6.945587 8.873935,-7.229427 0.309212,-0.105217 0.9395,0.617276 1.445526,1.656985 0.56669,1.164352 1.674763,2.368278 3.007664,3.267836 1.820489,1.228625 2.48546,1.424287 4.840525,1.424287 5.157401,0 8.948517,-3.262945 9.344915,-8.043007 0.242603,-2.925495 -0.44837,-5.134534 -2.24671,-7.182733 -3.695789,-4.209268 -10.044976,-4.184898 -13.765757,0.05283 -0.78129,0.889838 -1.423547,1.758933 -1.427237,1.931324 -0.0035,0.172387 -0.176287,0.581053 -0.38354,0.908147 -0.287413,0.4536 -1.45571,-0.261283 -4.923516,-3.012713 -2.500676,-1.984089 -4.617499,-3.670121 -4.704053,-3.746742 -0.24627,-0.218009 1.667424,-2.867026 3.403367,-4.711087 6.572569,-6.981934 18.29848,-8.176951 26.530827,-2.703823 7.36669,4.897619 10.94379,13.999034 8.77482,22.326285 -1.02915,3.951165 -3.11307,7.437203 -6.1367,10.265665 -2.93135,2.742135 -5.435339,4.155605 -9.081146,5.126175 -2.501118,0.66584 -7.523471,0.75037 -9.975458,0.16789 z M 115.16265,84.367602 V 64.208461 h 6.50335 6.50333 l 5.877,10.843085 5.877,10.843084 0.11717,-10.843084 0.11716,-10.843085 h 5.90862 5.90862 v 20.171175 20.171174 l -6.24496,-0.12159 -6.24495,-0.1216 -5.78443,-10.298689 c -3.18144,-5.66428 -5.98655,-10.594505 -6.23357,-10.956055 -0.31104,-0.455242 -0.41895,2.745162 -0.35096,10.408651 l 0.0982,11.066013 -6.02583,-4e-4 -6.02584,-4e-4 z M 54.685226,84.186621 V 69.500095 l 10.18913,7.219076 c 5.604023,3.970493 10.228416,7.364986 10.276429,7.543315 0.06906,0.256512 -17.468679,12.841767 -19.871812,14.260204 -0.494661,0.291974 -0.593747,-2.100429 -0.593747,-14.336069 z"
       id="path1190" />
  </g>
</svg>
