<?xml version="1.0" encoding="UTF-8" standalone="no"?>
<!-- Created with Inkscape (http://www.inkscape.org/) -->

<svg
   width="160mm"
   height="160mm"
   viewBox="0 0 160 160"
   version="1.1"
   id="svg5"
   inkscape:version="1.1.2 (b8e25be833, 2022-02-05)"
   sodipodi:docname="seven.svg"
   xmlns:inkscape="http://www.inkscape.org/namespaces/inkscape"
   xmlns:sodipodi="http://sodipodi.sourceforge.net/DTD/sodipodi-0.dtd"
   xmlns="http://www.w3.org/2000/svg"
   xmlns:svg="http://www.w3.org/2000/svg">
  <sodipodi:namedview
     id="namedview7"
     pagecolor="#505050"
     bordercolor="#eeeeee"
     borderopacity="1"
     inkscape:pageshadow="0"
     inkscape:pageopacity="0"
     inkscape:pagecheckerboard="0"
     inkscape:document-units="mm"
     showgrid="false"
     inkscape:zoom="1.466344"
     inkscape:cx="349.16773"
     inkscape:cy="321.20703"
     inkscape:window-width="1920"
     inkscape:window-height="1009"
     inkscape:window-x="-8"
     inkscape:window-y="-8"
     inkscape:window-maximized="1"
     inkscape:current-layer="layer1" />
  <defs
     id="defs2" />
  <g
     inkscape:label="Layer 1"
     inkscape:groupmode="layer"
     id="layer1">
    <path
       style="display:inline;fill:#e6001d;fill-opacity:1;stroke-width:0.175409"
       d="m 23.639629,126.21386 c 0.773996,-1.35102 5.264182,-9.0348 12.121579,-20.74292 1.864669,-3.18368 3.6524,-6.242386 3.972735,-6.797118 1.127872,-1.953158 1.790341,-3.086216 5.615015,-9.603669 2.123067,-3.61782 5.912755,-10.09043 8.421532,-14.383577 2.508776,-4.293147 5.257748,-8.989736 6.108826,-10.436864 0.85108,-1.447128 1.795865,-3.065281 2.099525,-3.595894 0.303659,-0.530614 1.526371,-2.622372 2.717137,-4.648352 4.10361,-6.981918 11.815061,-20.17403 12.288879,-21.02279 l 0.474899,-0.850703 9.854972,16.423067 9.854975,16.423065 -6.043756,10.563648 C 85.20926,87.883301 71.375532,112.03621 65.785909,121.78402 l -2.816348,4.91147 -19.82848,0.0446 -19.828481,0.0446 z M 116.09327,93.807453 v -9.646278 l -11.66031,-0.0451 -11.660306,-0.0451 0.976966,-1.66639 c 0.537332,-0.916515 1.219478,-2.100529 1.515882,-2.631142 0.296403,-0.530614 1.604658,-2.819708 2.907231,-5.086875 1.302575,-2.267168 2.817687,-4.911466 3.366917,-5.876218 l 0.99861,-1.754094 6.7775,-0.04591 6.77751,-0.04591 v -9.64546 -9.645462 h 8.77047 8.77047 v 9.647522 9.647521 h 9.73523 9.73523 v 8.595064 8.595065 h -9.73523 -9.73523 v 9.647521 9.647523 h -8.77047 -8.77047 z M 27.140953,65.697894 c -0.405928,-0.700026 -1.344139,-2.298918 -2.08491,-3.553096 -0.740772,-1.254178 -2.042344,-3.464337 -2.892382,-4.911465 -0.850039,-1.447128 -2.125747,-3.602304 -2.834909,-4.789279 -0.709161,-1.186975 -1.289383,-2.195321 -1.289383,-2.24077 0,-0.04545 -0.307899,-0.574038 -0.684219,-1.174644 C 16.768029,48.091598 14.734314,44.650508 9.6862182,36.052638 L 8.5790892,34.166986 H 41.644031 c 31.479692,0 33.057039,0.01477 32.900088,0.308034 -0.09067,0.169419 -0.540228,0.939028 -0.999017,1.710242 -0.458791,0.771216 -1.242497,2.112618 -1.741572,2.980895 -0.499074,0.868276 -2.155627,3.70991 -3.681228,6.314741 -3.18228,5.433466 -4.904696,8.385552 -5.987118,10.261454 -0.417508,0.723564 -2.053047,3.525731 -3.634532,6.227037 l -2.875426,4.911465 -13.873111,0.04491 -13.873109,0.04491 z"
       id="path962" />
  </g>
</svg>
