<?xml version="1.0" encoding="UTF-8" standalone="no"?>
<!-- Created with Inkscape (http://www.inkscape.org/) -->

<svg
   width="160mm"
   height="160mm"
   viewBox="0 0 160 160"
   version="1.1"
   id="svg5"
   inkscape:version="1.1.2 (b8e25be833, 2022-02-05)"
   sodipodi:docname="stan.svg"
   xmlns:inkscape="http://www.inkscape.org/namespaces/inkscape"
   xmlns:sodipodi="http://sodipodi.sourceforge.net/DTD/sodipodi-0.dtd"
   xmlns="http://www.w3.org/2000/svg"
   xmlns:svg="http://www.w3.org/2000/svg">
  <sodipodi:namedview
     id="namedview7"
     pagecolor="#505050"
     bordercolor="#eeeeee"
     borderopacity="1"
     inkscape:pageshadow="0"
     inkscape:pageopacity="0"
     inkscape:pagecheckerboard="0"
     inkscape:document-units="mm"
     showgrid="false"
     inkscape:zoom="0.733172"
     inkscape:cx="443.27934"
     inkscape:cy="285.06271"
     inkscape:window-width="1920"
     inkscape:window-height="1009"
     inkscape:window-x="-8"
     inkscape:window-y="-8"
     inkscape:window-maximized="1"
     inkscape:current-layer="layer1" />
  <defs
     id="defs2">
    <filter
       style="color-interpolation-filters:sRGB;"
       inkscape:label="Invert"
       id="filter930"
       x="0"
       y="0"
       width="1"
       height="1">
      <feColorMatrix
         values="1 0 0 0 0 0 1 0 0 0 0 0 1 0 0 -0.21 -0.72 -0.07 2 0 "
         result="color2"
         id="feColorMatrix928" />
    </filter>
  </defs>
  <g
     inkscape:label="Layer 1"
     inkscape:groupmode="layer"
     id="layer1">
    <path
       style="fill:#0073fa;fill-opacity:1;stroke-width:0.199375"
       d="M 16.979229,99.845977 C 16.705089,99.805738 15.807902,99.676083 14.985481,99.55786 13.390247,99.328549 9.4280965,98.382492 8.1056311,97.915137 6.062005,97.192926 4.2192392,96.322788 4.2192392,96.080027 c 0,-0.272707 3.1397571,-11.674039 3.2433961,-11.777679 0.031288,-0.03129 0.6825319,0.306103 1.4472122,0.749756 5.2869105,3.067368 11.9391495,4.459727 14.6383665,3.063906 0.742593,-0.38401 1.404223,-1.388438 1.405263,-2.133352 9.8e-4,-0.658639 -0.773464,-1.608734 -1.650385,-2.024859 -0.362389,-0.171965 -2.49425,-0.813639 -4.737469,-1.425943 -5.425309,-1.480879 -6.983545,-1.999925 -8.7638883,-2.919248 -3.8084083,-1.966562 -5.5720323,-4.350515 -6.2000731,-8.38086 -0.4183402,-2.684628 -0.00955,-5.249272 1.2661021,-7.943277 0.6478805,-1.368232 1.113983,-2.005198 2.4196231,-3.306614 1.7712824,-1.765548 3.2013742,-2.691331 5.6178292,-3.636752 3.094296,-1.210621 5.674806,-1.630141 10.019842,-1.628951 3.736414,9.8e-4 6.001584,0.370642 9.505722,1.551089 l 2.791248,0.940295 0.05254,6.509533 0.05254,6.509535 -2.145977,-1.076214 c -3.845328,-1.928438 -8.094789,-3.096109 -11.274705,-3.098073 -2.686284,-0.0016 -4.019695,0.812987 -3.973783,2.427778 0.03531,1.241768 0.176291,1.312626 6.722509,3.378677 2.85106,0.899823 6.080933,2.062561 7.177494,2.583864 3.186377,1.514797 5.264438,3.275721 6.429839,5.448576 l 0.448594,0.836389 V 68.917726 57.107851 h 7.277182 7.277181 v 4.186872 4.186872 h 4.887888 4.887887 l -0.05305,5.432964 -0.05305,5.432965 -4.834839,0.05339 -4.834841,0.05339 3.99e-4,4.532232 c 2e-4,3.915483 0.04775,4.627192 0.348906,5.230045 0.934159,1.869977 4.198135,1.87721 7.898966,0.0175 l 1.820159,-0.914691 0.119512,-3.189998 c 0.143543,-3.83145 0.599877,-5.942987 1.850188,-8.561144 0.474447,-0.993493 1.275379,-2.361677 1.779852,-3.04041 1.755748,-2.362247 4.728227,-4.356556 7.714502,-5.175847 1.870277,-0.513115 6.071776,-0.508879 7.576239,0.0076 1.659994,0.569913 2.798266,1.19129 4.049735,2.210732 l 1.134014,0.92376 v -1.506265 -1.506266 h 7.177494 7.177497 v 10.473584 c 0,11.437158 0.0193,11.646198 1.11353,12.062226 0.50779,0.193062 2.39877,-0.01182 2.8855,-0.312644 0.11388,-0.07038 0.18784,-4.468264 0.18784,-11.169625 V 65.481595 h 7.1775 7.17749 v 1.196249 c 0,0.657937 0.0511,1.196249 0.1136,1.196249 0.0625,0 0.51669,-0.277327 1.00935,-0.616284 1.28518,-0.884222 3.14224,-1.678099 4.79797,-2.051083 1.79989,-0.405458 5.12767,-0.415306 6.80393,-0.02013 4.22022,0.994913 7.16138,3.996278 8.46471,8.638017 0.4129,1.470485 0.43093,1.963326 0.49546,13.538371 l 0.067,12.012342 h -7.17845 -7.17844 l -0.0589,-9.420467 -0.0589,-9.420463 -0.49687,-0.86792 c -0.68091,-1.189405 -1.59009,-1.624265 -3.39588,-1.624265 -1.00194,0 -1.7044,0.123873 -2.40044,0.4233 l -0.98399,0.423303 v 10.243251 10.243261 h -7.16088 c -3.93849,0 -7.19078,-0.07805 -7.22734,-0.173443 -0.0365,-0.0954 -0.87393,-1.05e-4 -1.86083,0.211746 -2.33189,0.500578 -7.940303,0.715111 -9.712296,0.371512 C 92.010241,99.303612 89.78995,97.790709 88.820148,95.9193 l -0.292842,-0.565096 -1.082314,1.063527 c -2.232468,2.193722 -4.802147,3.307804 -8.068717,3.498202 -4.032046,0.235007 -7.63256,-1.044885 -10.684249,-3.797976 l -1.021989,-0.921997 -0.806546,0.584259 c -1.152957,0.835197 -3.767584,2.114908 -5.529439,2.706349 -2.792319,0.937347 -4.986745,1.306191 -8.486989,1.426517 -3.933684,0.135225 -5.500715,-0.13068 -7.927086,-1.345112 -3.098644,-1.550926 -5.269815,-4.834708 -5.859579,-8.862333 -0.03745,-0.255775 -0.404404,0.311288 -1.023427,1.581543 -2.175848,4.464921 -6.609629,7.392412 -12.689336,8.378385 -1.710748,0.277432 -6.939347,0.390162 -8.368266,0.180414 z M 84.340397,87.60275 c 0.697622,-0.113199 1.706955,-0.428048 2.242965,-0.699664 l 0.974564,-0.493849 v -3.941153 -3.94115 l -0.548285,-0.321468 c -0.941311,-0.551912 -2.659561,-0.960755 -4.037776,-0.960755 -2.674316,0 -4.362485,1.476448 -4.815741,4.211785 -0.174822,1.054994 -0.154039,1.516822 0.11585,2.574268 0.517126,2.026165 1.682954,3.202555 3.534673,3.566705 1.195503,0.235101 1.118393,0.234941 2.53375,0.0053 z m 63.315283,11.422928 c -1.24412,-0.445818 -2.01576,-1.034637 -2.71771,-2.073802 -0.63978,-0.947143 -0.84135,-2.081979 -0.71456,-4.02312 0.14995,-2.296067 1.07585,-3.647403 3.14697,-4.592995 1.25364,-0.572363 4.05081,-0.585306 5.56489,-0.02575 2.40017,0.887026 3.52701,2.814053 3.36549,5.755372 -0.13319,2.425639 -1.12991,3.97698 -3.10609,4.834489 -1.15939,0.503088 -4.28784,0.574139 -5.53899,0.125804 z"
       id="path1186" />
  </g>
</svg>
