<?xml version="1.0" encoding="UTF-8" standalone="no"?>
<!-- Created with Inkscape (http://www.inkscape.org/) -->

<svg
   width="160mm"
   height="160mm"
   viewBox="0 0 160 160"
   version="1.1"
   id="svg5"
   inkscape:version="1.1.2 (b8e25be833, 2022-02-05)"
   sodipodi:docname="youtube.svg"
   xmlns:inkscape="http://www.inkscape.org/namespaces/inkscape"
   xmlns:sodipodi="http://sodipodi.sourceforge.net/DTD/sodipodi-0.dtd"
   xmlns="http://www.w3.org/2000/svg"
   xmlns:svg="http://www.w3.org/2000/svg">
  <sodipodi:namedview
     id="namedview7"
     pagecolor="#505050"
     bordercolor="#eeeeee"
     borderopacity="1"
     inkscape:pageshadow="0"
     inkscape:pageopacity="0"
     inkscape:pagecheckerboard="0"
     inkscape:document-units="mm"
     showgrid="false"
     width="160mm"
     inkscape:zoom="1.466344"
     inkscape:cx="303.47586"
     inkscape:cy="349.84969"
     inkscape:window-width="1920"
     inkscape:window-height="1009"
     inkscape:window-x="-8"
     inkscape:window-y="-8"
     inkscape:window-maximized="1"
     inkscape:current-layer="layer1" />
  <defs
     id="defs2" />
  <g
     inkscape:label="Layer 1"
     inkscape:groupmode="layer"
     id="layer1">
    <g
       id="g75">
      <path
         style="display:inline;fill:#ffffff;stroke-width:0.241985"
         d="m 67.541167,116.02149 c -8.516369,-0.33273 -19.207133,-1.16223 -21.911976,-1.70014 -6.015824,-1.19637 -11.375675,-5.44028 -14.159216,-11.21121 -2.088552,-4.330058 -2.390117,-7.186448 -2.390117,-22.638963 0,-15.452514 0.301565,-18.308907 2.390117,-22.638964 2.783541,-5.770934 8.143392,-10.014841 14.159216,-11.211207 4.634594,-0.921682 23.072712,-1.957414 34.845904,-1.957414 11.773192,0 30.211305,1.035732 34.845905,1.957414 6.01583,1.196366 11.37567,5.440273 14.15922,11.211207 2.08855,4.330057 2.39012,7.18645 2.39012,22.638964 0,15.452515 -0.30157,18.308905 -2.39012,22.638963 -2.30541,4.77964 -6.19352,8.40555 -10.97846,10.23808 -2.39286,0.91641 -3.68306,1.16166 -8.38345,1.59359 -13.138305,1.20729 -29.010006,1.60976 -42.577143,1.07968 z"
         id="path469"
         inkscape:label="white"
         sodipodi:nodetypes="ssssssssssssss" />
      <path
         style="display:inline;fill:#fe0000;stroke-width:0.309078"
         d="m 63.955118,125.88206 c -10.877609,-0.42499 -24.532485,-1.48448 -27.98727,-2.17153 -7.683765,-1.52807 -14.529683,-6.94864 -18.084987,-14.31961 -2.667621,-5.53061 -3.052798,-9.17896 -3.052798,-28.915825 0,-19.736863 0.385177,-23.385217 3.052798,-28.915821 3.555304,-7.370978 10.401222,-12.791547 18.084987,-14.319616 5.919578,-1.177226 29.469831,-2.500124 44.507247,-2.500124 15.037416,0 38.587665,1.322898 44.507245,2.500124 7.68377,1.528069 14.52968,6.948638 18.08499,14.319616 2.66762,5.530604 3.0528,9.178958 3.0528,28.915821 0,19.736865 -0.38518,23.385215 -3.0528,28.915825 -2.9446,6.10484 -7.91073,10.73606 -14.02233,13.07667 -3.05631,1.1705 -4.70423,1.48375 -10.70784,2.03543 -16.78102,1.54202 -37.053294,2.05609 -54.382042,1.37904 z M 84.625819,90.377821 c 8.766645,-5.348052 15.939351,-9.80481 15.939351,-9.90391 0,-0.180786 -32.000755,-19.779815 -32.295934,-19.779815 -0.0865,0 -0.157265,8.91304 -0.157265,19.806754 0,12.068808 0.11222,19.76651 0.287248,19.70373 0.157985,-0.0567 7.459955,-4.478706 16.2266,-9.826759 z"
         id="path77"
         inkscape:label="red" />
    </g>
  </g>
</svg>
